# xmcd CD database file
#
# Track frame offsets:
#	182
#	20075
#	36652
#	60255
#	84420
#	104157
#	122315
#	140235
#	162785
#	185575
#
# Disc length: 2751 seconds
#
# Revision: 2
# Processed by: cddbd v1.5.2PL0 Copyright (c) Steve Scherf et al.
# Submitted via: CDex 1.70beta2
#
DISCID=8a0abd0a
DTITLE=Patrick O'Hearn - Eldorado
DYEAR=1989
DGENRE=New Age
TTITLE0=Amazon Waltz
TTITLE1=Nepalese Tango
TTITLE2=Black Delilah
TTITLE3=Chattahoochee Field Day
TTITLE4=The Illusionist
TTITLE5=One Eyed Jacks
TTITLE6=Hear Our Prayer
TTITLE7=Delicate
TTITLE8=Eldorado
TTITLE9=There's Always Tomorrow
EXTD=YEAR: 1989
EXTT0=
EXTT1=
EXTT2=
EXTT3=
EXTT4=
EXTT5=
EXTT6=
EXTT7=
EXTT8=
EXTT9=
PLAYORDER=
